<svg width="111" height="100" viewBox="0 0 111 100" fill="none" xmlns="http://www.w3.org/2000/svg">
<path d="M97.125 60.7542C97.125 57.8736 94.5821 55.5168 91.4741 55.5168H80.1723V65.9916H91.4741C94.5821 65.9916 97.125 63.6348 97.125 60.7542ZM91.4741 76.4665H80.1723V86.9413H91.4741C94.5821 86.9413 97.125 84.5845 97.125 81.7039C97.125 78.8233 94.5821 76.4665 91.4741 76.4665ZM46.2668 60.7542H34.965V81.7039H46.2668C46.2668 87.4651 51.3526 92.1788 57.5686 92.1788H74.5214V50.2793H57.5686C51.3526 50.2793 46.2668 54.993 46.2668 60.7542Z" fill="#F02E2C"/>
<path d="M12.8883 53.8032C12.8883 47.7052 17.4393 42.7159 23.0017 42.7159H30.5867C40.346 42.7159 48.285 34.0125 48.285 23.3133C48.285 12.6141 40.346 3.91061 30.5867 3.91061H12.8883C10.1072 3.91061 7.83166 6.40524 7.83166 9.45423C7.83166 12.5032 10.1072 14.9979 12.8883 14.9979H30.5867C34.7837 14.9979 38.1717 18.7121 38.1717 23.3133C38.1717 27.9145 34.7837 31.6287 30.5867 31.6287H23.0017C11.8264 31.6287 2.77499 41.5518 2.77499 53.8032C2.77499 66.0546 11.8264 75.9777 23.0017 75.9777H33.115V64.8904H23.0017C17.4393 64.8904 12.8883 59.9012 12.8883 53.8032Z" fill="#F02E2C"/>
</svg>
