<svg width="123" height="100" viewBox="0 0 123 100" fill="none" xmlns="http://www.w3.org/2000/svg">
<g clip-path="url(#clip0_1_30)">
<path d="M64.441 12.5C64.441 5.5625 69.4045 0 75.5951 0H95.1147C101.249 0 106.269 5.625 106.269 12.5V26C99.7995 28.5625 95.1147 35.4375 95.1147 43.5625V56.25H64.441V12.5ZM28.1902 43.5V56.25H58.8639V12.5C58.8639 5.5625 53.9004 0 47.7098 0H28.1902C22.0554 0 17.0361 5.625 17.0361 12.5V25.9375C23.5054 28.5 28.1902 35.4375 28.1902 43.5ZM109.95 31.4375C104.484 32.4375 100.692 38.25 100.692 44.5V62.5H22.6131V43.75C22.6131 40.4348 21.438 37.2554 19.3462 34.9112C17.2544 32.567 14.4173 31.25 11.459 31.25C8.50078 31.25 5.66369 32.567 3.57189 34.9112C1.48009 37.2554 0.304932 40.4348 0.304932 43.75V75C0.304932 81.875 5.32427 87.5 11.459 87.5V100H22.6131V87.5H100.692V100H111.846V87.5C117.981 87.5 123 81.875 123 75V43.75C123 36.1875 116.921 30.125 109.95 31.4375Z" fill="#F5AF23"/>
</g>
<defs>
<clipPath id="clip0_1_30">
<rect width="123" height="100" fill="white"/>
</clipPath>
</defs>
</svg>
