<svg width="116" height="100" viewBox="0 0 116 100" fill="none" xmlns="http://www.w3.org/2000/svg">
<g clip-path="url(#clip0_1_86)">
<path d="M57.8698 -0.5L-0.260254 52.4412H17.1788V99.5H98.5609V52.4412H116L57.8698 -0.5ZM57.8698 31.8529C71.4723 31.8529 83.7958 37.3235 92.7479 46.2059L85.7723 53.1471C78.3317 45.7474 68.302 41.6243 57.8698 41.6765C46.9414 41.6765 37.0593 46.0294 29.9674 53.1471L22.9918 46.2059C32.3042 36.9726 44.8324 31.8171 57.8698 31.8529ZM57.8698 51.4412C66.008 51.4412 73.3906 54.7353 78.7967 60.0882L71.821 66.9706C68.096 63.2815 63.0818 61.2308 57.8698 61.2647C52.4056 61.2647 47.4645 63.4412 43.9186 66.9706L36.943 60.0882C42.527 54.5386 50.0431 51.4329 57.8698 51.4412ZM57.8698 71.0882C63.3341 71.0882 67.7519 75.4412 67.7519 80.8529C67.7519 86.2647 63.3341 90.6765 57.8698 90.6765C52.4056 90.6765 47.9877 86.2647 47.9877 80.8529C47.9877 75.4412 52.4056 71.0882 57.8698 71.0882Z" fill="#F02E2C"/>
</g>
<defs>
<clipPath id="clip0_1_86">
<rect width="116" height="100" fill="white"/>
</clipPath>
</defs>
</svg>
