<svg width="98" height="100" viewBox="0 0 98 100" fill="none" xmlns="http://www.w3.org/2000/svg">
<g clip-path="url(#clip0_1_76)">
<path d="M19.6783 59.5H29.4685L44.1538 74.5H34.3636L19.6783 59.5ZM9.88811 9.5H14.7832V4.5C14.7832 3.17392 15.2989 1.90215 16.217 0.964466C17.135 0.0267841 18.3801 -0.5 19.6783 -0.5H39.2587C40.557 -0.5 41.8021 0.0267841 42.7201 0.964466C43.6381 1.90215 44.1538 3.17392 44.1538 4.5V9.5H53.9441V4.5C53.9441 3.17392 54.4598 1.90215 55.3778 0.964466C56.2958 0.0267841 57.5409 -0.5 58.8392 -0.5H78.4196C79.7178 -0.5 80.9629 0.0267841 81.8809 0.964466C82.799 1.90215 83.3147 3.17392 83.3147 4.5V9.5H88.2098C90.8063 9.5 93.2965 10.5536 95.1325 12.4289C96.9685 14.3043 98 16.8478 98 19.5V84.5C98 87.1522 96.9685 89.6957 95.1325 91.5711C93.2965 93.4464 90.8063 94.5 88.2098 94.5V99.5H73.5245V94.5H24.5734V99.5H9.88811V94.5C7.29158 94.5 4.80141 93.4464 2.96539 91.5711C1.12937 89.6957 0.0979004 87.1522 0.0979004 84.5V19.5C0.0979004 16.8478 1.12937 14.3043 2.96539 12.4289C4.80141 10.5536 7.29158 9.5 9.88811 9.5ZM78.4196 24.5C79.7178 24.5 80.9629 25.0268 81.8809 25.9645C82.799 26.9021 83.3147 28.1739 83.3147 29.5C83.3147 30.8261 82.799 32.0979 81.8809 33.0355C80.9629 33.9732 79.7178 34.5 78.4196 34.5C77.1213 34.5 75.8762 33.9732 74.9582 33.0355C74.0402 32.0979 73.5245 30.8261 73.5245 29.5C73.5245 28.1739 74.0402 26.9021 74.9582 25.9645C75.8762 25.0268 77.1213 24.5 78.4196 24.5ZM58.8392 24.5C60.1374 24.5 61.3825 25.0268 62.3005 25.9645C63.2185 26.9021 63.7343 28.1739 63.7343 29.5C63.7343 30.8261 63.2185 32.0979 62.3005 33.0355C61.3825 33.9732 60.1374 34.5 58.8392 34.5C57.5409 34.5 56.2958 33.9732 55.3778 33.0355C54.4598 32.0979 53.9441 30.8261 53.9441 29.5C53.9441 28.1739 54.4598 26.9021 55.3778 25.9645C56.2958 25.0268 57.5409 24.5 58.8392 24.5ZM88.2098 19.5H9.88811V39.5H88.2098V19.5ZM9.88811 84.5H88.2098V49.5H9.88811V84.5ZM19.6783 24.5C20.9766 24.5 22.2217 25.0268 23.1397 25.9645C24.0577 26.9021 24.5734 28.1739 24.5734 29.5C24.5734 30.8261 24.0577 32.0979 23.1397 33.0355C22.2217 33.9732 20.9766 34.5 19.6783 34.5C18.3801 34.5 17.135 33.9732 16.217 33.0355C15.2989 32.0979 14.7832 30.8261 14.7832 29.5C14.7832 28.1739 15.2989 26.9021 16.217 25.9645C17.135 25.0268 18.3801 24.5 19.6783 24.5ZM53.9441 59.5H63.7343L78.4196 74.5H68.6294L53.9441 59.5Z" fill="#F5AF23"/>
</g>
<defs>
<clipPath id="clip0_1_76">
<rect width="98" height="100" fill="white"/>
</clipPath>
</defs>
</svg>
