<svg width="91" height="100" viewBox="0 0 91 100" fill="none" xmlns="http://www.w3.org/2000/svg">
<g clip-path="url(#clip0_1_17)">
<path d="M80.8449 0H24.9922C19.3917 0 14.8372 4.6936 14.8372 10.4651V26.1628C14.8372 31.9343 19.3917 36.6279 24.9922 36.6279H80.8449C86.4454 36.6279 91 31.9343 91 26.1628V10.4651C91 4.6936 86.4454 0 80.8449 0Z" fill="#0177B8"/>
<path d="M54.6627 65.5267V55.6771C54.6627 50.2451 50.2299 45.8276 44.779 45.8276H10.186V16.2791C4.7351 16.2791 0.302246 20.6966 0.302246 26.1286V45.8276C0.302246 51.2596 4.7351 55.6771 10.186 55.6771H44.779V65.5267C43.4683 65.5267 42.2113 66.0455 41.2846 66.9691C40.3578 67.8927 39.8371 69.1453 39.8371 70.4514V95.0752C39.8371 96.3814 40.3578 97.634 41.2846 98.5576C42.2113 99.4811 43.4683 100 44.779 100H54.6627C55.9734 100 57.2304 99.4811 58.1571 98.5576C59.0839 97.634 59.6046 96.3814 59.6046 95.0752V70.4514C59.6046 69.1453 59.0839 67.8927 58.1571 66.9691C57.2304 66.0455 55.9734 65.5267 54.6627 65.5267Z" fill="#0177B8"/>
</g>
<defs>
<clipPath id="clip0_1_17">
<rect width="91" height="100" fill="white"/>
</clipPath>
</defs>
</svg>
