<svg width="117" height="100" viewBox="0 0 117 100" fill="none" xmlns="http://www.w3.org/2000/svg">
<g clip-path="url(#clip0_1_65)">
<path d="M0 0V100H117V0H0ZM8.97634 9.34625H108.024V90.6539H8.97634V9.34625ZM29.3928 21.0838C26.5995 21.0838 24.2491 22.0585 22.3446 24.0091C20.44 25.9596 19.4881 28.3665 19.4881 31.2271C19.4881 33.9579 20.44 36.2971 22.3446 38.2477C24.2491 40.1982 26.5995 41.173 29.3928 41.173C32.0593 41.173 34.3437 40.1981 36.2484 38.2477C38.153 36.2972 39.1048 33.9578 39.1048 31.2271C39.1048 28.3665 38.1529 25.9596 36.2484 24.0091C34.3438 22.0585 32.0593 21.0838 29.3928 21.0838ZM71.4825 26.0275L49.0094 60.9404L37.0766 50.7971L19.4881 74.1992V81.0295H97.5119V53.5908L71.4825 26.0275Z" fill="#0177B8"/>
</g>
<defs>
<clipPath id="clip0_1_65">
<rect width="117" height="100" fill="white"/>
</clipPath>
</defs>
</svg>
