<svg width="94" height="100" viewBox="0 0 94 100" fill="none" xmlns="http://www.w3.org/2000/svg">
<g clip-path="url(#clip0_1_97)">
<g clip-path="url(#clip1_1_97)">
<path d="M103.4 -10H-9.40002V110H103.4V-10Z" fill="white"/>
<path d="M103.4 -10H-9.40002V110H103.4V-10Z" fill="white"/>
<path d="M80.5022 48.4635H61.2224C60.3509 48.4635 59.4893 48.3698 58.6325 48.1927C57.7806 48.0104 56.9532 47.7448 56.1454 47.3906C55.3425 47.0312 54.5787 46.5989 53.8542 46.0833C53.1296 45.5729 52.4637 44.9844 51.8469 44.3333C51.23 43.6771 50.6817 42.9635 50.197 42.1927C49.7123 41.4219 49.3059 40.6094 48.973 39.7552C48.6401 38.901 48.3904 38.0208 48.2191 37.1094C48.0477 36.2031 47.9645 35.2864 47.9645 34.3594V13.8437C47.9645 12.9219 48.0477 12.0052 48.2191 11.0937C48.3904 10.1875 48.6401 9.30728 48.973 8.44791C49.3059 7.59374 49.7123 6.78124 50.197 6.01041C50.6817 5.23957 51.23 4.53124 51.8469 3.87499C52.4637 3.21874 53.1296 2.63541 53.8542 2.11978C54.5787 1.60416 55.3425 1.17186 56.1454 0.817698C56.9532 0.463531 57.7806 0.192697 58.6325 0.0156146C59.4893 -0.166677 60.3509 -0.255219 61.2224 -0.255219H80.5022C81.3736 -0.255219 82.2353 -0.166677 83.0872 0.0156146C83.944 0.192697 84.7714 0.463531 85.5743 0.817698C86.3821 1.17186 87.1458 1.60416 87.8655 2.11978C88.5901 2.63541 89.2608 3.21874 89.8777 3.87499C90.4897 4.53124 91.0429 5.23957 91.5227 6.01041C92.0074 6.78124 92.4186 7.59374 92.7516 8.44791C93.0845 9.30728 93.3342 10.1875 93.5055 11.0937C93.672 12.0052 93.7601 12.9219 93.7601 13.8437V34.3594C93.7601 35.2864 93.672 36.2031 93.5055 37.1094C93.3342 38.0208 93.0845 38.901 92.7516 39.7552C92.4186 40.6094 92.0074 41.4219 91.5227 42.1927C91.0429 42.9635 90.4897 43.6771 89.8777 44.3333C89.2608 44.9844 88.5901 45.5729 87.8655 46.0833C87.1458 46.5989 86.3821 47.0312 85.5743 47.3906C84.7714 47.7448 83.944 48.0104 83.0872 48.1927C82.2353 48.3698 81.3736 48.4635 80.5022 48.4635ZM61.2224 7.43749C60.8258 7.43749 60.4342 7.47916 60.0474 7.55728C59.6557 7.64061 59.2787 7.76041 58.9165 7.92186C58.5493 8.08332 58.2017 8.28124 57.8736 8.51562C57.5456 8.74999 57.2372 9.01561 56.9581 9.31249C56.6791 9.60936 56.4294 9.93228 56.2091 10.2864C55.9887 10.6354 55.8027 11.0052 55.6558 11.3906C55.5041 11.7812 55.3866 12.1823 55.3082 12.5937C55.2348 13.0104 55.1956 13.4271 55.1956 13.8437V34.3594C55.1956 34.7812 55.2348 35.1979 55.3082 35.6094C55.3866 36.0208 55.5041 36.4219 55.6558 36.8125C55.8027 37.2031 55.9887 37.5729 56.2091 37.9219C56.4294 38.2708 56.6791 38.5937 56.9581 38.8906C57.2372 39.1875 57.5456 39.4531 57.8736 39.6875C58.2017 39.9219 58.5493 40.1198 58.9165 40.2812C59.2787 40.4427 59.6557 40.5625 60.0474 40.6458C60.4342 40.7292 60.8258 40.7708 61.2224 40.7708H80.5022C80.8987 40.7708 81.2904 40.7292 81.6772 40.6458C82.064 40.5625 82.4409 40.4427 82.8081 40.2812C83.1753 40.1198 83.5229 39.9219 83.8509 39.6875C84.179 39.4531 84.4825 39.1875 84.7616 38.8906C85.0455 38.5937 85.2952 38.2708 85.5106 37.9219C85.7309 37.5729 85.917 37.2031 86.0687 36.8125C86.2205 36.4219 86.3331 36.0208 86.4115 35.6094C86.4898 35.1979 86.529 34.7812 86.529 34.3594V13.8437C86.529 13.4271 86.4898 13.0104 86.4115 12.5937C86.3331 12.1823 86.2205 11.7812 86.0687 11.3906C85.917 11.0052 85.7309 10.6354 85.5106 10.2864C85.2952 9.93228 85.0455 9.60936 84.7616 9.31249C84.4825 9.01561 84.179 8.74999 83.8509 8.51562C83.5229 8.28124 83.1753 8.08332 82.8081 7.92186C82.4409 7.76041 82.064 7.64061 81.6772 7.55728C81.2904 7.47916 80.8987 7.43749 80.5022 7.43749H61.2224Z" fill="#179D2E"/>
<path d="M27.4754 48.4635H13.0132C12.1466 48.4635 11.2849 48.3698 10.4282 48.1927C9.57628 48.0104 8.74888 47.7448 7.94107 47.3906C7.13815 47.0312 6.3744 46.5989 5.64982 46.0833C4.92524 45.5729 4.2594 44.9844 3.64253 44.3333C3.02565 43.6771 2.47732 42.9635 1.99263 42.1927C1.50794 41.4219 1.10159 40.6094 0.768673 39.7552C0.435756 38.901 0.181173 38.0208 0.0147149 37.1094C-0.156639 36.2031 -0.239868 35.2864 -0.239868 34.3594V18.9739C-0.239868 18.0469 -0.156639 17.1302 0.0147149 16.2239C0.181173 15.3125 0.435756 14.4323 0.768673 13.5781C1.10159 12.7239 1.50794 11.9114 1.99263 11.1406C2.47732 10.3698 3.02565 9.65624 3.64253 8.99999C4.2594 8.34895 4.92524 7.76041 5.64982 7.24999C6.3744 6.73436 7.13815 6.30207 7.94107 5.9427C8.74888 5.58853 9.57628 5.32291 10.4282 5.14061C11.2849 4.96353 12.1466 4.86978 13.0132 4.86978H27.4754C28.3469 4.86978 29.2086 4.96353 30.0653 5.14061C30.9172 5.32291 31.7446 5.58853 32.5475 5.9427C33.3553 6.30207 34.1191 6.73436 34.8437 7.24999C35.5634 7.76041 36.2341 8.34895 36.851 8.99999C37.4678 9.65624 38.0162 10.3698 38.5009 11.1406C38.9807 11.9114 39.3919 12.7239 39.7248 13.5781C40.0577 14.4323 40.3074 15.3125 40.4788 16.2239C40.6501 17.1302 40.7334 18.0469 40.7334 18.9739V34.3594C40.7334 35.2864 40.6501 36.2031 40.4788 37.1094C40.3074 38.0208 40.0577 38.901 39.7248 39.7552C39.3919 40.6094 38.9807 41.4219 38.5009 42.1927C38.0162 42.9635 37.4678 43.6771 36.851 44.3333C36.2341 44.9844 35.5634 45.5729 34.8437 46.0833C34.1191 46.5989 33.3553 47.0312 32.5475 47.3906C31.7446 47.7448 30.9172 48.0104 30.0653 48.1927C29.2086 48.3698 28.3469 48.4635 27.4754 48.4635ZM13.0132 12.5625C12.6215 12.5625 12.2298 12.6042 11.8382 12.6875C11.4514 12.7708 11.0744 12.8906 10.7072 13.0521C10.3449 13.2135 9.99732 13.4114 9.6693 13.6458C9.33638 13.8802 9.03284 14.1458 8.75378 14.4427C8.47472 14.7396 8.22503 15.0625 8.00472 15.4114C7.7844 15.7604 7.59836 16.1302 7.44659 16.5208C7.29482 16.9114 7.18222 17.3125 7.10388 17.7239C7.03044 18.1354 6.99128 18.5521 6.99128 18.9739V34.3594C6.99128 34.7812 7.03044 35.1979 7.10388 35.6094C7.18222 36.0208 7.29482 36.4219 7.44659 36.8125C7.59836 37.2031 7.7844 37.5729 8.00472 37.9219C8.22503 38.2708 8.47472 38.5937 8.75378 38.8906C9.03284 39.1875 9.33638 39.4531 9.6693 39.6875C9.99732 39.9219 10.3449 40.1198 10.7072 40.2812C11.0744 40.4427 11.4514 40.5625 11.8382 40.6458C12.2298 40.7292 12.6215 40.7708 13.0132 40.7708H27.4754C27.872 40.7708 28.2637 40.7292 28.6504 40.6458C29.0421 40.5625 29.4191 40.4427 29.7814 40.2812C30.1486 40.1198 30.4962 39.9219 30.8242 39.6875C31.1522 39.4531 31.4558 39.1875 31.7397 38.8906C32.0188 38.5937 32.2685 38.2708 32.4888 37.9219C32.7091 37.5729 32.8902 37.2031 33.042 36.8125C33.1938 36.4219 33.3113 36.0208 33.3847 35.6094C33.4631 35.1979 33.5022 34.7812 33.5022 34.3594V18.9739C33.5022 18.5521 33.4631 18.1354 33.3847 17.7239C33.3113 17.3125 33.1938 16.9114 33.042 16.5208C32.8902 16.1302 32.7091 15.7604 32.4888 15.4114C32.2685 15.0625 32.0188 14.7396 31.7397 14.4427C31.4558 14.1458 31.1522 13.8802 30.8242 13.6458C30.4962 13.4114 30.1486 13.2135 29.7814 13.0521C29.4191 12.8906 29.0421 12.7708 28.6504 12.6875C28.2637 12.6042 27.872 12.5625 27.4754 12.5625H13.0132Z" fill="#179D2E"/>
<path d="M75.6798 99.7448H61.2224C60.3509 99.7448 59.4893 99.651 58.6325 99.474C57.7806 99.2917 56.9532 99.026 56.1454 98.6719C55.3425 98.3177 54.5787 97.8802 53.8542 97.3646C53.1296 96.8542 52.4637 96.2656 51.8469 95.6146C51.23 94.9583 50.6817 94.2448 50.197 93.474C49.7123 92.7083 49.3059 91.8958 48.973 91.0365C48.6401 90.1823 48.3904 89.3021 48.2191 88.3906C48.0477 87.4844 47.9645 86.5677 47.9645 85.6406V70.2552C47.9645 69.3281 48.0477 68.4115 48.2191 67.5052C48.3904 66.599 48.6401 65.7135 48.973 64.8594C49.3059 64.0052 49.7123 63.1927 50.197 62.4219C50.6817 61.651 51.23 60.9375 51.8469 60.2865C52.4637 59.6302 53.1296 59.0469 53.8542 58.5312C54.5787 58.0156 55.3425 57.5833 56.1454 57.2292C56.9532 56.875 57.7806 56.6042 58.6325 56.4271C59.4893 56.2448 60.3509 56.1562 61.2224 56.1562H75.6798C76.5513 56.1562 77.4129 56.2448 78.2697 56.4271C79.1216 56.6042 79.949 56.875 80.7568 57.2292C81.5597 57.5833 82.3234 58.0156 83.048 58.5312C83.7726 59.0469 84.4384 59.6302 85.0553 60.2865C85.6722 60.9375 86.2205 61.651 86.7052 62.4219C87.1899 63.1927 87.5963 64.0052 87.9292 64.8594C88.2621 65.7135 88.5118 66.599 88.6831 67.5052C88.8545 68.4115 88.9377 69.3281 88.9377 70.2552V85.6406C88.9377 86.5677 88.8545 87.4844 88.6831 88.3906C88.5118 89.3021 88.2621 90.1823 87.9292 91.0365C87.5963 91.8958 87.1899 92.7083 86.7052 93.474C86.2205 94.2448 85.6722 94.9583 85.0553 95.6146C84.4384 96.2656 83.7726 96.8542 83.048 97.3646C82.3234 97.8802 81.5597 98.3177 80.7568 98.6719C79.949 99.026 79.1216 99.2917 78.2697 99.474C77.4129 99.651 76.5513 99.7448 75.6798 99.7448ZM61.2224 63.8438C60.8258 63.8438 60.4342 63.8854 60.0474 63.9688C59.6557 64.0521 59.2788 64.1719 58.9165 64.3333C58.5493 64.4948 58.2017 64.6927 57.8736 64.9271C57.5456 65.1615 57.2372 65.4271 56.9581 65.724C56.6791 66.0208 56.4294 66.3438 56.2091 66.6927C55.9887 67.0469 55.8027 67.4167 55.6558 67.8021C55.5041 68.1927 55.3866 68.5938 55.3082 69.0052C55.2348 69.4167 55.1956 69.8333 55.1956 70.2552V85.6406C55.1956 86.0625 55.2348 86.4792 55.3082 86.8906C55.3866 87.3021 55.5041 87.7031 55.6558 88.0938C55.8027 88.4844 55.9887 88.8542 56.2091 89.2031C56.4294 89.5521 56.6791 89.875 56.9581 90.1719C57.2372 90.474 57.5456 90.7396 57.8736 90.9688C58.2017 91.2031 58.5493 91.401 58.9165 91.5625C59.2788 91.724 59.6557 91.8438 60.0474 91.9271C60.4342 92.0104 60.8258 92.0521 61.2224 92.0521H75.6798C76.0764 92.0521 76.468 92.0104 76.8597 91.9271C77.2465 91.8438 77.6234 91.724 77.9857 91.5625C78.3529 91.401 78.7005 91.2031 79.0285 90.9688C79.3566 90.7396 79.665 90.474 79.9441 90.1719C80.2231 89.875 80.4728 89.5521 80.6931 89.2031C80.9134 88.8542 81.0995 88.4844 81.2513 88.0938C81.3981 87.7031 81.5156 87.3021 81.594 86.8906C81.6674 86.4792 81.7066 86.0625 81.7066 85.6406V70.2552C81.7066 69.8333 81.6674 69.4167 81.594 69.0052C81.5156 68.5938 81.3981 68.1927 81.2513 67.8021C81.0995 67.4167 80.9134 67.0469 80.6931 66.6927C80.4728 66.3438 80.2231 66.0208 79.9441 65.724C79.665 65.4271 79.3566 65.1615 79.0285 64.9271C78.7005 64.6927 78.3529 64.4948 77.9857 64.3333C77.6234 64.1719 77.2465 64.0521 76.8597 63.9688C76.468 63.8854 76.0764 63.8438 75.6798 63.8438H61.2224Z" fill="#179D2E"/>
<path d="M27.4754 99.7448H13.0132C12.1466 99.7448 11.2849 99.651 10.4282 99.474C9.57628 99.2917 8.74888 99.026 7.94107 98.6719C7.13815 98.3177 6.3744 97.8802 5.64982 97.3646C4.92524 96.8542 4.2594 96.2656 3.64253 95.6146C3.02565 94.9583 2.47732 94.2448 1.99263 93.474C1.50794 92.7083 1.10159 91.8958 0.768673 91.0365C0.435756 90.1823 0.181173 89.3021 0.0147149 88.3906C-0.156639 87.4844 -0.239868 86.5677 -0.239868 85.6406V70.2552C-0.239868 69.3281 -0.156639 68.4115 0.0147149 67.5052C0.181173 66.599 0.435756 65.7135 0.768673 64.8594C1.10159 64.0052 1.50794 63.1927 1.99263 62.4219C2.47732 61.651 3.02565 60.9375 3.64253 60.2865C4.2594 59.6302 4.92524 59.0469 5.64982 58.5312C6.3744 58.0156 7.13815 57.5833 7.94107 57.2292C8.74888 56.875 9.57628 56.6042 10.4282 56.4271C11.2849 56.2448 12.1466 56.1562 13.0132 56.1562H27.4754C28.3469 56.1562 29.2086 56.2448 30.0653 56.4271C30.9172 56.6042 31.7446 56.875 32.5475 57.2292C33.3553 57.5833 34.1191 58.0156 34.8437 58.5312C35.5634 59.0469 36.2341 59.6302 36.851 60.2865C37.4678 60.9375 38.0162 61.651 38.5009 62.4219C38.9807 63.1927 39.3919 64.0052 39.7248 64.8594C40.0577 65.7135 40.3074 66.599 40.4788 67.5052C40.6501 68.4115 40.7334 69.3281 40.7334 70.2552V85.6406C40.7334 86.5677 40.6501 87.4844 40.4788 88.3906C40.3074 89.3021 40.0577 90.1823 39.7248 91.0365C39.3919 91.8958 38.9807 92.7083 38.5009 93.474C38.0162 94.2448 37.4678 94.9583 36.851 95.6146C36.2341 96.2656 35.5634 96.8542 34.8437 97.3646C34.1191 97.8802 33.3553 98.3177 32.5475 98.6719C31.7446 99.026 30.9172 99.2917 30.0653 99.474C29.2086 99.651 28.3469 99.7448 27.4754 99.7448ZM13.0132 63.8438C12.6215 63.8438 12.2298 63.8854 11.8382 63.9688C11.4514 64.0521 11.0744 64.1719 10.7072 64.3333C10.3449 64.4948 9.99732 64.6927 9.6693 64.9271C9.33638 65.1615 9.03284 65.4271 8.75378 65.724C8.47472 66.0208 8.22503 66.3438 8.00472 66.6927C7.7844 67.0469 7.59836 67.4167 7.44659 67.8021C7.29482 68.1927 7.18222 68.5938 7.10388 69.0052C7.03044 69.4167 6.99128 69.8333 6.99128 70.2552V85.6406C6.99128 86.0625 7.03044 86.4792 7.10388 86.8906C7.18222 87.3021 7.29482 87.7031 7.44659 88.0938C7.59836 88.4844 7.7844 88.8542 8.00472 89.2031C8.22503 89.5521 8.47472 89.875 8.75378 90.1719C9.03284 90.474 9.33638 90.7396 9.6693 90.9688C9.99732 91.2031 10.3449 91.401 10.7072 91.5625C11.0744 91.724 11.4514 91.8438 11.8382 91.9271C12.2298 92.0104 12.6215 92.0521 13.0132 92.0521H27.4754C27.872 92.0521 28.2637 92.0104 28.6504 91.9271C29.0421 91.8438 29.4191 91.724 29.7814 91.5625C30.1486 91.401 30.4962 91.2031 30.8242 90.9688C31.1522 90.7396 31.4558 90.474 31.7397 90.1719C32.0188 89.875 32.2685 89.5521 32.4888 89.2031C32.7091 88.8542 32.8902 88.4844 33.042 88.0938C33.1938 87.7031 33.3113 87.3021 33.3847 86.8906C33.4631 86.4792 33.5022 86.0625 33.5022 85.6406V70.2552C33.5022 69.8333 33.4631 69.4167 33.3847 69.0052C33.3113 68.5938 33.1938 68.1927 33.042 67.8021C32.8902 67.4167 32.7091 67.0469 32.4888 66.6927C32.2685 66.3438 32.0188 66.0208 31.7397 65.724C31.4558 65.4271 31.1522 65.1615 30.8242 64.9271C30.4962 64.6927 30.1486 64.4948 29.7814 64.3333C29.4191 64.1719 29.0421 64.0521 28.6504 63.9688C28.2637 63.8854 27.872 63.8438 27.4754 63.8438H13.0132Z" fill="#179D2E"/>
</g>
</g>
<defs>
<clipPath id="clip0_1_97">
<rect width="94" height="100" fill="white"/>
</clipPath>
<clipPath id="clip1_1_97">
<rect width="94" height="100" fill="white"/>
</clipPath>
</defs>
</svg>
