<svg width="94" height="100" viewBox="0 0 94 100" fill="none" xmlns="http://www.w3.org/2000/svg">
<path d="M43.5614 0C42.7207 0 41.8801 0.840336 40.1988 2.52101V9.2437H30.0003C26.7485 5.88235 26.7485 5.88235 23.3859 9.2437C20.0233 12.605 20.0233 12.605 23.3859 15.9664C26.7485 19.3277 26.7485 19.3277 29.8526 15.9664H40.1988V22.6891H46.9239V15.9664H57.1594C60.4806 19.3277 60.4799 19.3277 63.8425 15.9664C67.2051 12.605 67.2051 12.605 63.8425 9.2437C60.4799 5.88235 60.4806 5.88235 57.0116 9.2437H46.9239V2.52101C45.2426 0.840336 44.402 0 43.5614 0ZM-0.1521 16.3866V70.1681H6.57305V16.3866H-0.1521ZM13.2982 26.4706L9.93562 23.1092V63.4454L13.2982 60.084V26.4706ZM43.5614 26.0504C36.8362 26.0504 33.4001 26.0504 33.2151 32.7731H16.6608V52.9412H30.2424C33.4736 56.3025 36.8362 59.6639 43.5614 59.6639C50.2865 59.6639 53.6491 56.3025 57.0116 52.9412C70.4619 52.9412 70.4619 52.9412 70.4619 59.6639V66.3866H90.6374V52.9412C90.6374 39.4958 83.9122 32.7731 70.4619 32.7731H53.6491C53.7226 26.0504 50.2865 26.0504 43.5614 26.0504ZM67.0994 69.7479V73.1092H93.9999V69.7479H67.0994ZM80.5497 76.4706C80.5497 76.4706 72.3906 87.3235 73.8245 93.6975C74.7114 97.6387 76.5083 100 80.5497 100C84.591 100 86.3879 97.6387 87.2748 93.6975C88.7087 87.3235 80.5497 76.4706 80.5497 76.4706Z" fill="#179D2E"/>
</svg>
